<svg width="529" height="529" viewBox="0 0 529 529" fill="none" xmlns="http://www.w3.org/2000/svg">

<path d="M155.934 482V464.792H166.542V466.688H158.286V472.712H165.342V474.608H158.286V482H155.934ZM164.574 466.088L166.542 466.688V468.872H165.438C165.31 468.872 165.198 468.848 165.102 468.8C165.022 468.736 164.966 468.632 164.934 468.488L164.574 466.088ZM156.654 464.792L156.39 466.664L154.59 466.28C154.462 466.248 154.366 466.192 154.302 466.112C154.238 466.032 154.206 465.92 154.206 465.776V464.792H156.654ZM154.206 482V481.016C154.206 480.872 154.238 480.76 154.302 480.68C154.366 480.584 154.462 480.528 154.59 480.512L156.39 480.128L156.654 482H154.206ZM157.566 482L157.83 480.128L159.63 480.512C159.758 480.528 159.854 480.584 159.918 480.68C159.982 480.76 160.014 480.872 160.014 481.016V482H157.566ZM172.96 482.192C172.08 482.192 171.336 482 170.728 481.616C170.12 481.216 169.656 480.672 169.336 479.984C169.032 479.296 168.88 478.496 168.88 477.584V469.832H171.016V477.584C171.016 478.512 171.224 479.232 171.64 479.744C172.072 480.24 172.72 480.488 173.584 480.488C174.208 480.488 174.792 480.344 175.336 480.056C175.896 479.752 176.408 479.336 176.872 478.808V469.832H179.008V482H177.736C177.416 482 177.224 481.848 177.16 481.544L176.992 480.248C176.464 480.824 175.872 481.296 175.216 481.664C174.56 482.016 173.808 482.192 172.96 482.192ZM178.288 482L178.552 480.128L180.352 480.512C180.48 480.528 180.576 480.584 180.64 480.68C180.704 480.76 180.736 480.872 180.736 481.016V482H178.288ZM169.6 469.832L169.336 471.704L167.536 471.32C167.408 471.288 167.312 471.232 167.248 471.152C167.184 471.072 167.152 470.96 167.152 470.816V469.832H169.6ZM177.592 469.832L177.328 471.704L175.528 471.32C175.4 471.288 175.304 471.232 175.24 471.152C175.176 471.072 175.144 470.96 175.144 470.816V469.832H177.592ZM183.447 482V464.312H185.583V482H183.447ZM181.719 482V481.016C181.719 480.872 181.751 480.76 181.815 480.68C181.879 480.584 181.975 480.528 182.103 480.512L183.903 480.128L184.167 482H181.719ZM184.863 482L185.127 480.128L186.927 480.512C187.055 480.528 187.151 480.584 187.215 480.68C187.279 480.76 187.311 480.872 187.311 481.016V482H184.863ZM184.167 464.312L183.903 466.184L182.103 465.8C181.975 465.768 181.879 465.712 181.815 465.632C181.751 465.552 181.719 465.44 181.719 465.296V464.312H184.167ZM190.15 482V464.312H192.286V482H190.15ZM188.422 482V481.016C188.422 480.872 188.454 480.76 188.518 480.68C188.582 480.584 188.678 480.528 188.806 480.512L190.606 480.128L190.87 482H188.422ZM191.566 482L191.83 480.128L193.63 480.512C193.758 480.528 193.854 480.584 193.918 480.68C193.982 480.76 194.014 480.872 194.014 481.016V482H191.566ZM190.87 464.312L190.606 466.184L188.806 465.8C188.678 465.768 188.582 465.712 188.518 465.632C188.454 465.552 188.422 465.44 188.422 465.296V464.312H190.87ZM205.464 482.192C204.888 482.192 204.24 482.128 203.52 482C202.816 481.872 202.208 481.712 201.696 481.52V479.744L202.752 479.984C202.96 480.128 203.288 480.28 203.736 480.44C204.2 480.584 204.736 480.656 205.344 480.656C206.256 480.656 206.928 480.472 207.36 480.104C207.792 479.72 208.008 479.256 208.008 478.712C208.008 478.232 207.864 477.864 207.576 477.608C207.288 477.352 206.904 477.144 206.424 476.984C205.944 476.824 205.424 476.656 204.864 476.48C204.288 476.288 203.76 476.064 203.28 475.808C202.8 475.552 202.416 475.224 202.128 474.824C201.84 474.408 201.696 473.888 201.696 473.264C201.696 472.544 201.88 471.912 202.248 471.368C202.632 470.824 203.144 470.4 203.784 470.096C204.44 469.792 205.176 469.64 205.992 469.64C206.456 469.64 206.968 469.696 207.528 469.808C208.104 469.92 208.728 470.088 209.4 470.312V471.752L208.128 471.584C207.792 471.488 207.448 471.408 207.096 471.344C206.76 471.28 206.432 471.248 206.112 471.248C205.648 471.248 205.232 471.32 204.864 471.464C204.512 471.608 204.232 471.808 204.024 472.064C203.816 472.32 203.712 472.616 203.712 472.952C203.712 473.4 203.88 473.76 204.215 474.032C204.568 474.288 204.992 474.496 205.488 474.656C205.984 474.816 206.456 474.968 206.904 475.112C207.432 475.272 207.928 475.48 208.392 475.736C208.872 475.992 209.264 476.328 209.568 476.744C209.872 477.16 210.024 477.704 210.024 478.376C210.024 479.096 209.832 479.744 209.448 480.32C209.08 480.896 208.552 481.352 207.864 481.688C207.192 482.024 206.392 482.192 205.464 482.192ZM207.864 471.248L209.4 471.56V473.432H208.608C208.448 473.432 208.328 473.4 208.248 473.336C208.168 473.256 208.12 473.16 208.104 473.048L207.864 471.248ZM203.232 480.536L201.696 480.224V478.352H202.488C202.664 478.352 202.784 478.392 202.848 478.472C202.928 478.536 202.976 478.624 202.992 478.736L203.232 480.536ZM216.138 482.192C215.178 482.192 214.434 481.928 213.906 481.4C213.394 480.856 213.138 480.08 213.138 479.072V471.632H211.674C211.546 471.632 211.434 471.592 211.338 471.512C211.258 471.432 211.218 471.312 211.218 471.152V470.312L213.21 470.048L213.714 466.304C213.746 466.032 213.906 465.896 214.194 465.896H215.274V470.072H218.754V471.632H215.274V478.928C215.274 479.44 215.394 479.824 215.634 480.08C215.89 480.32 216.218 480.44 216.618 480.44C216.794 480.44 216.986 480.392 217.194 480.296C217.402 480.2 217.594 480.104 217.77 480.008C217.946 479.912 218.074 479.864 218.154 479.864C218.266 479.864 218.362 479.928 218.442 480.056L219.066 481.088C218.698 481.424 218.25 481.696 217.722 481.904C217.21 482.096 216.682 482.192 216.138 482.192ZM223.897 482.192C223.257 482.192 222.681 482.072 222.169 481.832C221.657 481.576 221.249 481.208 220.945 480.728C220.641 480.248 220.489 479.656 220.489 478.952C220.489 478.472 220.617 478.016 220.873 477.584C221.145 477.136 221.577 476.736 222.169 476.384C222.761 476.048 223.529 475.768 224.473 475.544C225.433 475.32 226.601 475.192 227.977 475.16V474.224C227.977 473.28 227.769 472.568 227.353 472.088C226.953 471.592 226.361 471.344 225.577 471.344C225.161 471.344 224.721 471.456 224.257 471.68C223.809 471.888 223.393 472.104 223.009 472.328C222.625 472.536 222.321 472.64 222.097 472.64C221.953 472.64 221.825 472.6 221.713 472.52C221.617 472.44 221.537 472.344 221.473 472.232L221.089 471.56C221.761 470.904 222.481 470.416 223.249 470.096C224.033 469.776 224.897 469.616 225.841 469.616C226.753 469.616 227.521 469.808 228.145 470.192C228.769 470.576 229.241 471.112 229.561 471.8C229.897 472.488 230.065 473.296 230.065 474.224V482H229.129C228.921 482 228.753 481.968 228.625 481.904C228.497 481.84 228.409 481.704 228.361 481.496L228.121 480.368C227.481 480.944 226.841 481.392 226.201 481.712C225.561 482.032 224.793 482.192 223.897 482.192ZM224.521 480.68C225.241 480.68 225.873 480.536 226.417 480.248C226.961 479.96 227.481 479.56 227.977 479.048V476.528C227.145 476.544 226.393 476.608 225.721 476.72C225.049 476.816 224.473 476.96 223.993 477.152C223.529 477.328 223.169 477.56 222.913 477.848C222.673 478.12 222.553 478.456 222.553 478.856C222.553 479.496 222.737 479.96 223.105 480.248C223.489 480.536 223.961 480.68 224.521 480.68ZM229.345 482L229.609 480.128L231.409 480.512C231.537 480.528 231.633 480.584 231.697 480.68C231.761 480.76 231.793 480.872 231.793 481.016V482H229.345ZM238.286 482.168C237.23 482.168 236.294 481.912 235.478 481.4C234.678 480.872 234.046 480.136 233.582 479.192C233.134 478.248 232.91 477.152 232.91 475.904C232.91 474.688 233.126 473.608 233.558 472.664C233.99 471.72 234.63 470.984 235.478 470.456C236.326 469.912 237.382 469.64 238.646 469.64C239.142 469.64 239.718 469.728 240.374 469.904C241.03 470.064 241.654 470.264 242.246 470.504V471.8L240.998 471.728C240.678 471.616 240.334 471.52 239.966 471.44C239.614 471.36 239.214 471.32 238.766 471.32C237.95 471.32 237.27 471.512 236.726 471.896C236.198 472.264 235.798 472.792 235.526 473.48C235.254 474.168 235.118 474.976 235.118 475.904C235.118 477.296 235.422 478.416 236.03 479.264C236.638 480.096 237.51 480.512 238.646 480.512C239.27 480.512 239.782 480.416 240.182 480.224C240.582 480.016 240.91 479.816 241.166 479.624C241.422 479.416 241.622 479.312 241.766 479.312C241.846 479.312 241.918 479.328 241.982 479.36C242.062 479.392 242.126 479.44 242.174 479.504L242.774 480.296C242.246 480.936 241.59 481.408 240.806 481.712C240.022 482.016 239.182 482.168 238.286 482.168ZM240.71 471.488L242.246 471.8V473.672H241.454C241.294 473.672 241.174 473.64 241.094 473.576C241.014 473.496 240.966 473.4 240.95 473.288L240.71 471.488ZM245.838 482V464.312H247.974V474.728H248.526C248.686 474.728 248.822 474.704 248.934 474.656C249.046 474.608 249.158 474.52 249.27 474.392L253.11 470.264C253.238 470.136 253.358 470.032 253.47 469.952C253.582 469.872 253.742 469.832 253.95 469.832H255.894L251.406 474.608C251.294 474.72 251.182 474.832 251.07 474.944C250.974 475.056 250.854 475.152 250.71 475.232C250.982 475.424 251.222 475.68 251.43 476L256.182 482H254.262C254.086 482 253.942 481.968 253.83 481.904C253.718 481.824 253.598 481.712 253.47 481.568L249.462 476.6C249.35 476.424 249.23 476.312 249.102 476.264C248.99 476.216 248.814 476.192 248.574 476.192H247.974V482H245.838ZM253.422 471.776L252.918 470.984V469.832H255.702L253.758 471.704L253.422 471.776ZM254.262 482L253.11 479.816L254.526 480.128L254.262 482ZM244.11 482V481.016C244.11 480.872 244.142 480.76 244.206 480.68C244.27 480.584 244.366 480.528 244.494 480.512L246.294 480.128L246.558 482H244.11ZM247.254 482L247.518 480.128L249.318 480.512C249.446 480.528 249.542 480.584 249.605 480.68C249.67 480.76 249.702 480.872 249.702 481.016V482H247.254ZM246.558 464.312L246.294 466.184L244.494 465.8C244.366 465.768 244.27 465.712 244.206 465.632C244.142 465.552 244.11 465.44 244.11 465.296V464.312H246.558ZM255.942 469.832V470.816C255.942 470.96 255.91 471.072 255.846 471.152C255.782 471.232 255.686 471.288 255.557 471.32L253.758 471.704L253.494 469.832H255.942ZM253.47 469.832L253.206 471.704L251.406 471.32C251.278 471.288 251.182 471.232 251.118 471.152C251.054 471.072 251.022 470.96 251.022 470.816V469.832H253.47ZM254.262 482L254.526 480.128L256.326 480.512C256.454 480.528 256.55 480.584 256.614 480.68C256.678 480.76 256.71 480.872 256.71 481.016V482H254.262ZM266.184 482V464.792H272.616C273.88 464.792 275.032 465 276.072 465.416C277.128 465.832 278.024 466.416 278.76 467.168C279.512 467.92 280.088 468.824 280.488 469.88C280.888 470.936 281.088 472.112 281.088 473.408C281.088 474.688 280.888 475.856 280.488 476.912C280.088 477.968 279.512 478.872 278.76 479.624C278.024 480.376 277.128 480.96 276.072 481.376C275.032 481.792 273.88 482 272.616 482H266.184ZM268.536 480.104H272.616C273.88 480.104 274.968 479.832 275.88 479.288C276.792 478.744 277.488 477.976 277.968 476.984C278.464 475.976 278.712 474.784 278.712 473.408C278.712 472.032 278.464 470.84 277.968 469.832C277.488 468.824 276.792 468.048 275.88 467.504C274.968 466.96 273.88 466.688 272.616 466.688H268.536V480.104ZM264.456 482V481.016C264.456 480.872 264.488 480.76 264.552 480.68C264.616 480.584 264.712 480.528 264.84 480.512L266.64 480.128L266.904 482H264.456ZM266.904 464.792L266.64 466.664L264.84 466.28C264.712 466.248 264.616 466.192 264.552 466.112C264.488 466.032 264.456 465.92 264.456 465.776V464.792H266.904ZM288.429 482.168C287.261 482.168 286.237 481.904 285.357 481.376C284.493 480.848 283.821 480.096 283.341 479.12C282.861 478.144 282.621 476.992 282.621 475.664C282.621 474.528 282.853 473.504 283.317 472.592C283.781 471.68 284.437 470.96 285.285 470.432C286.149 469.904 287.157 469.64 288.309 469.64C289.317 469.64 290.197 469.864 290.949 470.312C291.701 470.76 292.285 471.392 292.701 472.208C293.133 473.008 293.349 473.968 293.349 475.088C293.349 475.424 293.309 475.648 293.229 475.76C293.165 475.872 293.029 475.928 292.821 475.928H284.733C284.733 475.976 284.733 476.032 284.733 476.096C284.733 476.144 284.733 476.192 284.733 476.24C284.813 477.584 285.189 478.632 285.861 479.384C286.533 480.12 287.445 480.488 288.597 480.488C289.093 480.488 289.581 480.392 290.061 480.2C290.557 479.992 290.989 479.792 291.357 479.6C291.741 479.408 292.013 479.312 292.173 479.312C292.349 479.312 292.485 479.376 292.581 479.504L293.181 480.296C292.861 480.712 292.429 481.064 291.885 481.352C291.357 481.624 290.789 481.832 290.181 481.976C289.573 482.104 288.989 482.168 288.429 482.168ZM284.805 474.584H291.429C291.429 473.592 291.157 472.784 290.613 472.16C290.069 471.536 289.317 471.224 288.357 471.224C287.317 471.224 286.501 471.52 285.909 472.112C285.317 472.704 284.949 473.528 284.805 474.584ZM300.068 482L295.1 469.832H296.852C297.028 469.832 297.172 469.88 297.284 469.976C297.396 470.056 297.476 470.16 297.524 470.288L300.596 478.112C300.676 478.32 300.748 478.56 300.812 478.832C300.892 479.104 300.972 479.432 301.052 479.816C301.116 479.544 301.18 479.264 301.244 478.976C301.324 478.688 301.42 478.4 301.532 478.112L304.652 470.288C304.7 470.16 304.772 470.056 304.868 469.976C304.98 469.88 305.116 469.832 305.276 469.832H306.956L301.988 482H300.068ZM296.588 470.432V469.832H298.388V470.432H296.588ZM304.052 470.432V469.832H305.852V470.432H304.052ZM296.732 469.832L296.468 471.704L294.668 471.32C294.54 471.288 294.444 471.232 294.38 471.152C294.316 471.072 294.284 470.96 294.284 470.816V469.832H296.732ZM299.732 469.832V470.816C299.732 470.96 299.7 471.072 299.636 471.152C299.572 471.232 299.476 471.288 299.348 471.32L297.548 471.704L297.284 469.832H299.732ZM304.772 469.832L304.508 471.704L302.708 471.32C302.58 471.288 302.484 471.232 302.42 471.152C302.356 471.072 302.324 470.96 302.324 470.816V469.832H304.772ZM307.772 469.832V470.816C307.772 470.96 307.74 471.072 307.676 471.152C307.612 471.232 307.516 471.288 307.388 471.32L305.588 471.704L305.324 469.832H307.772ZM314.515 482.168C313.347 482.168 312.323 481.904 311.443 481.376C310.579 480.848 309.907 480.096 309.427 479.12C308.947 478.144 308.707 476.992 308.707 475.664C308.707 474.528 308.939 473.504 309.403 472.592C309.867 471.68 310.523 470.96 311.371 470.432C312.235 469.904 313.243 469.64 314.395 469.64C315.403 469.64 316.283 469.864 317.035 470.312C317.787 470.76 318.371 471.392 318.787 472.208C319.219 473.008 319.435 473.968 319.435 475.088C319.435 475.424 319.395 475.648 319.315 475.76C319.251 475.872 319.115 475.928 318.907 475.928H310.819C310.819 475.976 310.819 476.032 310.819 476.096C310.819 476.144 310.819 476.192 310.819 476.24C310.899 477.584 311.275 478.632 311.947 479.384C312.619 480.12 313.531 480.488 314.683 480.488C315.179 480.488 315.667 480.392 316.147 480.2C316.643 479.992 317.075 479.792 317.443 479.6C317.827 479.408 318.099 479.312 318.259 479.312C318.435 479.312 318.571 479.376 318.667 479.504L319.267 480.296C318.947 480.712 318.515 481.064 317.971 481.352C317.443 481.624 316.875 481.832 316.267 481.976C315.659 482.104 315.075 482.168 314.515 482.168ZM310.891 474.584H317.515C317.515 473.592 317.243 472.784 316.699 472.16C316.155 471.536 315.403 471.224 314.443 471.224C313.403 471.224 312.587 471.52 311.995 472.112C311.403 472.704 311.035 473.528 310.891 474.584ZM322.642 482V464.312H324.778V482H322.642ZM320.914 482V481.016C320.914 480.872 320.946 480.76 321.01 480.68C321.074 480.584 321.17 480.528 321.298 480.512L323.098 480.128L323.362 482H320.914ZM324.058 482L324.322 480.128L326.122 480.512C326.25 480.528 326.346 480.584 326.41 480.68C326.474 480.76 326.506 480.872 326.506 481.016V482H324.058ZM323.362 464.312L323.098 466.184L321.298 465.8C321.17 465.768 321.074 465.712 321.01 465.632C320.946 465.552 320.914 465.44 320.914 465.296V464.312H323.362ZM333.569 469.64C334.785 469.64 335.817 469.904 336.665 470.432C337.529 470.944 338.193 471.672 338.657 472.616C339.121 473.56 339.353 474.656 339.353 475.904C339.353 477.152 339.121 478.248 338.657 479.192C338.193 480.136 337.529 480.872 336.665 481.4C335.817 481.912 334.785 482.168 333.569 482.168C332.385 482.168 331.353 481.912 330.473 481.4C329.609 480.872 328.937 480.136 328.457 479.192C327.993 478.248 327.761 477.152 327.761 475.904C327.761 474.656 327.993 473.56 328.457 472.616C328.937 471.672 329.609 470.944 330.473 470.432C331.353 469.904 332.385 469.64 333.569 469.64ZM333.569 480.488C334.769 480.488 335.665 480.088 336.257 479.288C336.849 478.488 337.145 477.368 337.145 475.928C337.145 474.952 337.009 474.128 336.737 473.456C336.481 472.768 336.089 472.24 335.561 471.872C335.033 471.504 334.369 471.32 333.569 471.32C332.753 471.32 332.073 471.512 331.529 471.896C331.001 472.264 330.609 472.792 330.353 473.48C330.097 474.168 329.969 474.984 329.969 475.928C329.969 477.32 330.265 478.432 330.857 479.264C331.449 480.08 332.353 480.488 333.569 480.488ZM342.564 486.128V469.832H343.836C344.156 469.832 344.348 469.984 344.412 470.288L344.604 471.728C345.116 471.088 345.708 470.576 346.38 470.192C347.052 469.808 347.82 469.616 348.684 469.616C349.676 469.616 350.516 469.872 351.204 470.384C351.892 470.896 352.412 471.616 352.764 472.544C353.116 473.472 353.292 474.568 353.292 475.832C353.292 477 353.084 478.064 352.668 479.024C352.252 479.984 351.652 480.752 350.868 481.328C350.084 481.888 349.14 482.168 348.036 482.168C347.284 482.168 346.644 482.048 346.116 481.808C345.588 481.552 345.116 481.192 344.7 480.728V486.128H342.564ZM347.556 480.512C348.324 480.512 348.964 480.336 349.476 479.984C350.004 479.616 350.404 479.08 350.676 478.376C350.948 477.672 351.084 476.824 351.084 475.832C351.084 474.36 350.828 473.248 350.316 472.496C349.804 471.728 349.028 471.344 347.988 471.344C347.284 471.344 346.668 471.504 346.14 471.824C345.628 472.144 345.148 472.6 344.7 473.192V479.072C345.1 479.6 345.532 479.976 345.996 480.2C346.46 480.408 346.98 480.512 347.556 480.512ZM343.284 469.832L343.02 471.704L341.22 471.32C341.092 471.288 340.996 471.232 340.932 471.152C340.868 471.072 340.836 470.96 340.836 470.816V469.832H343.284ZM340.836 486.128V485.144C340.836 485 340.868 484.88 340.932 484.784C340.996 484.704 341.092 484.656 341.22 484.64L343.02 484.256L343.284 486.128H340.836ZM343.98 486.128L344.244 484.256L346.044 484.64C346.172 484.656 346.268 484.704 346.332 484.784C346.396 484.88 346.428 485 346.428 485.144V486.128H343.98ZM360.733 482.168C359.565 482.168 358.541 481.904 357.661 481.376C356.797 480.848 356.125 480.096 355.645 479.12C355.165 478.144 354.925 476.992 354.925 475.664C354.925 474.528 355.157 473.504 355.621 472.592C356.085 471.68 356.741 470.96 357.589 470.432C358.453 469.904 359.461 469.64 360.613 469.64C361.621 469.64 362.501 469.864 363.253 470.312C364.005 470.76 364.589 471.392 365.005 472.208C365.437 473.008 365.653 473.968 365.653 475.088C365.653 475.424 365.613 475.648 365.533 475.76C365.469 475.872 365.333 475.928 365.125 475.928H357.037C357.037 475.976 357.037 476.032 357.037 476.096C357.037 476.144 357.037 476.192 357.037 476.24C357.117 477.584 357.493 478.632 358.165 479.384C358.837 480.12 359.749 480.488 360.901 480.488C361.397 480.488 361.885 480.392 362.365 480.2C362.861 479.992 363.293 479.792 363.661 479.6C364.045 479.408 364.317 479.312 364.477 479.312C364.653 479.312 364.789 479.376 364.885 479.504L365.485 480.296C365.165 480.712 364.733 481.064 364.189 481.352C363.661 481.624 363.093 481.832 362.485 481.976C361.877 482.104 361.293 482.168 360.733 482.168ZM357.109 474.584H363.733C363.733 473.592 363.461 472.784 362.917 472.16C362.373 471.536 361.621 471.224 360.661 471.224C359.621 471.224 358.805 471.52 358.213 472.112C357.621 472.704 357.253 473.528 357.109 474.584ZM368.861 482V469.832H370.085C370.325 469.832 370.493 469.88 370.589 469.976C370.685 470.056 370.741 470.208 370.757 470.432L370.901 472.328C371.317 471.48 371.829 470.816 372.437 470.336C373.045 469.856 373.765 469.616 374.597 469.616C374.933 469.616 375.237 469.656 375.509 469.736C375.781 469.816 376.029 469.92 376.253 470.048L375.989 471.656C375.973 471.752 375.925 471.824 375.845 471.872C375.781 471.92 375.701 471.944 375.605 471.944C375.493 471.944 375.277 471.912 374.957 471.848C374.637 471.768 374.357 471.728 374.117 471.728C373.381 471.728 372.757 471.944 372.245 472.376C371.749 472.808 371.333 473.432 370.997 474.248V482H368.861ZM370.277 482L370.541 480.128L372.341 480.512C372.469 480.528 372.565 480.584 372.629 480.68C372.693 480.76 372.725 480.872 372.725 481.016V482H370.277ZM367.133 482V481.016C367.133 480.872 367.165 480.76 367.229 480.68C367.293 480.584 367.389 480.528 367.517 480.512L369.317 480.128L369.581 482H367.133ZM369.581 469.832L369.317 471.704L367.517 471.32C367.389 471.288 367.293 471.232 367.229 471.152C367.165 471.072 367.133 470.96 367.133 470.816V469.832H369.581Z" fill="black"/>
<path d="M189.619 233.808C184.755 233.808 180.702 232.869 177.459 230.992C174.216 229.115 172.296 226.213 171.699 222.288V221.52C171.016 222.459 170.206 223.568 169.267 224.848C168.414 226.128 167.475 227.195 166.451 228.048C165.512 228.987 164.531 229.456 163.507 229.456C163.336 229.456 162.824 229.371 161.971 229.2C161.203 229.029 160.435 228.816 159.667 228.56C158.984 228.304 158.6 228.005 158.515 227.664C158.259 226.043 158.643 223.739 159.667 220.752C160.776 217.68 162.184 214.309 163.891 210.64C165.683 206.971 167.518 203.301 169.395 199.632C171.358 195.963 173.15 192.677 174.771 189.776C176.392 186.789 177.544 184.528 178.227 182.992C178.739 182.053 179.08 181.285 179.251 180.688C179.422 180.005 179.507 179.493 179.507 179.152C179.507 178.64 179.422 178.213 179.251 177.872C179.422 176.848 180.019 175.483 181.043 173.776C182.152 172.069 183.518 170.363 185.139 168.656C186.76 166.949 188.51 165.541 190.387 164.432C192.264 163.237 194.014 162.64 195.635 162.64C196.147 162.64 196.915 162.811 197.939 163.152C199.048 163.408 200.072 163.835 201.011 164.432C202.035 165.029 202.675 165.883 202.931 166.992C203.016 167.248 203.059 167.504 203.059 167.76C203.059 168.016 202.974 168.144 202.803 168.144C202.632 168.144 202.376 168.101 202.035 168.016C201.779 167.845 201.566 167.76 201.395 167.76C199.432 167.76 197.299 168.699 194.995 170.576C192.691 172.453 190.302 174.971 187.827 178.128C185.438 181.285 183.091 184.741 180.787 188.496C178.483 192.251 176.264 196.048 174.131 199.888C172.083 203.643 170.291 207.141 168.755 210.384C167.219 213.541 166.024 216.101 165.171 218.064C164.488 219.941 164.147 221.264 164.147 222.032C164.147 223.227 164.616 223.824 165.555 223.824C166.75 223.824 168.03 223.013 169.395 221.392C170.334 220.283 171.187 219.259 171.955 218.32C172.808 217.296 173.534 216.869 174.131 217.04C175.326 217.04 176.136 217.381 176.563 218.064C176.99 218.661 177.246 219.387 177.331 220.24C177.416 221.093 177.502 221.861 177.587 222.544C178.184 225.189 179.55 227.365 181.683 229.072C183.902 230.864 186.974 231.76 190.899 231.76C195.08 231.76 198.835 231.077 202.163 229.712C205.491 228.347 208.136 226.469 210.099 224.08C212.062 221.605 213.043 218.832 213.043 215.76C213.043 213.627 212.531 211.408 211.507 209.104C210.483 206.715 208.862 204.325 206.643 201.936C204.766 199.717 202.675 197.627 200.371 195.664C198.067 193.701 196.062 191.909 194.355 190.288C192.734 188.581 191.923 187.131 191.923 185.936C191.923 184.912 192.606 184.016 193.971 183.248C195.336 182.395 196.446 181.968 197.299 181.968C199.262 181.968 201.736 181.584 204.723 180.816C207.795 180.048 210.952 179.024 214.195 177.744C217.438 176.379 220.382 174.885 223.027 173.264C225.758 171.643 227.763 170.021 229.043 168.4C229.811 167.461 230.408 166.48 230.835 165.456C231.347 164.347 231.603 163.28 231.603 162.256C231.603 160.635 230.878 159.184 229.427 157.904C228.062 156.539 225.715 155.557 222.387 154.96C221.448 154.704 220.339 154.533 219.059 154.448C217.779 154.363 216.414 154.32 214.963 154.32C210.611 154.32 205.576 154.747 199.859 155.6C194.142 156.368 188.339 157.52 182.451 159.056C176.563 160.592 171.059 162.512 165.939 164.816C160.819 167.12 156.595 169.808 153.267 172.88C150.024 175.867 148.19 179.195 147.763 182.864C147.592 184.997 148.104 186.619 149.299 187.728C150.494 188.837 151.902 189.691 153.523 190.288C155.144 190.8 156.424 191.312 157.363 191.824C158.131 192.165 158.515 192.507 158.515 192.848C158.515 193.275 158.046 193.488 157.107 193.488C156.083 193.488 154.803 193.232 153.267 192.72C151.731 192.208 150.195 191.44 148.659 190.416C147.208 189.307 146.014 187.984 145.075 186.448C144.136 184.912 143.795 183.12 144.051 181.072C144.051 180.901 144.008 180.603 143.923 180.176C143.838 179.664 143.795 179.28 143.795 179.024C144.051 176.293 145.203 173.691 147.251 171.216C149.384 168.741 151.859 166.48 154.675 164.432C157.576 162.384 160.264 160.677 162.739 159.312C165.47 157.861 168.755 156.539 172.595 155.344C176.435 154.064 180.531 152.955 184.883 152.016C189.32 151.077 193.8 150.352 198.323 149.84C202.846 149.243 207.07 148.944 210.995 148.944C215.176 148.944 218.846 149.285 222.003 149.968C226.27 150.907 229.555 152.571 231.859 154.96C234.163 157.349 235.315 159.995 235.315 162.896C235.23 166.053 234.248 168.827 232.371 171.216C230.579 173.52 228.232 175.483 225.331 177.104C222.43 178.725 219.272 180.091 215.859 181.2C212.531 182.224 209.246 182.992 206.003 183.504C202.76 184.016 199.944 184.315 197.555 184.4C201.139 186.533 204.68 188.923 208.179 191.568C211.763 194.128 214.707 196.944 217.011 200.016C219.4 203.088 220.595 206.459 220.595 210.128C220.595 212.176 220.126 214.309 219.187 216.528C218.334 218.661 216.926 220.965 214.963 223.44C212.403 226.597 208.819 229.115 204.211 230.992C199.688 232.869 194.824 233.808 189.619 233.808ZM250.844 181.456C249.735 181.456 248.583 181.371 247.388 181.2C246.193 180.944 245.596 180.133 245.596 178.768C245.596 178.512 246.151 177.915 247.26 176.976C248.455 176.037 249.649 175.099 250.844 174.16C252.124 173.136 252.892 172.539 253.148 172.368C254.599 171.173 255.495 170.576 255.836 170.576C256.263 170.576 256.263 171.131 255.836 172.24C255.409 173.349 255.196 174.331 255.196 175.184C255.196 175.611 254.94 176.336 254.428 177.36C253.916 178.384 253.319 179.323 252.636 180.176C251.953 181.029 251.356 181.456 250.844 181.456ZM236.892 227.28C235.356 227.28 233.948 226.939 232.668 226.256C231.473 225.573 230.577 224.293 229.98 222.416C229.895 222.16 229.809 221.904 229.724 221.648C229.724 221.392 229.724 221.093 229.724 220.752C229.724 219.045 230.108 216.912 230.876 214.352C231.644 211.792 232.583 209.317 233.692 206.928C233.18 207.611 232.583 208.464 231.9 209.488C231.217 210.427 230.236 211.664 228.956 213.2C228.615 213.541 228.231 213.712 227.804 213.712C227.207 213.712 226.908 213.371 226.908 212.688C226.908 212.176 227.079 211.749 227.42 211.408C229.639 208.592 231.601 206.075 233.308 203.856C235.1 201.637 236.423 199.76 237.276 198.224C237.276 198.139 237.233 198.096 237.148 198.096C237.148 198.011 237.148 197.925 237.148 197.84C237.148 197.584 237.276 197.2 237.532 196.688C238.215 194.64 238.897 192.933 239.58 191.568C240.348 190.117 241.159 189.307 242.012 189.136C242.183 189.136 242.353 189.136 242.524 189.136C242.695 189.051 242.865 189.008 243.036 189.008C243.975 189.008 244.828 189.221 245.596 189.648C246.364 190.075 246.748 190.715 246.748 191.568C246.748 192.336 246.449 193.275 245.852 194.384C245.34 195.493 244.657 196.859 243.804 198.48C241.927 202.405 240.22 205.989 238.684 209.232C237.233 212.389 236.423 214.992 236.252 217.04C236.167 217.381 236.124 217.723 236.124 218.064C236.124 218.32 236.124 218.619 236.124 218.96C236.124 222.373 237.233 224.08 239.452 224.08C240.817 224.08 242.567 223.355 244.7 221.904C246.833 220.368 249.009 218.533 251.228 216.4C253.447 214.181 255.452 212.091 257.244 210.128C259.121 208.08 260.401 206.544 261.084 205.52C261.34 205.264 261.596 205.136 261.852 205.136C262.193 205.136 262.449 205.264 262.62 205.52C262.876 205.776 262.919 206.117 262.748 206.544C261.98 207.995 260.657 209.829 258.78 212.048C256.988 214.181 254.94 216.357 252.636 218.576C250.417 220.709 248.241 222.544 246.108 224.08C244.999 224.933 243.591 225.659 241.884 226.256C240.263 226.939 238.599 227.28 236.892 227.28ZM264.615 229.584C263.762 229.584 262.738 229.499 261.543 229.328C260.434 229.157 259.452 228.944 258.599 228.688C257.746 228.432 257.319 228.219 257.319 228.048C257.319 227.877 257.703 227.707 258.471 227.536C259.324 227.451 260.775 227.408 262.823 227.408C264.956 227.408 267.26 226.896 269.735 225.872C272.295 224.763 274.727 223.483 277.031 222.032C279.335 220.581 281.298 219.301 282.919 218.192C285.479 216.315 288.124 213.925 290.855 211.024C293.586 208.037 295.506 204.795 296.615 201.296C296.786 200.699 296.999 199.888 297.255 198.864C297.511 197.84 297.639 196.816 297.639 195.792C297.639 194.853 297.468 194.085 297.127 193.488C296.786 192.805 296.146 192.464 295.207 192.464C293.5 192.464 291.708 192.933 289.831 193.872C288.039 194.811 286.29 195.92 284.583 197.2C282.962 198.395 281.554 199.547 280.359 200.656C279.335 201.424 278.098 202.576 276.647 204.112C275.196 205.648 273.746 207.355 272.295 209.232C270.93 211.109 269.82 212.987 268.967 214.864C268.114 216.656 267.815 218.277 268.071 219.728C268.242 220.069 268.114 220.752 267.687 221.776C267.346 222.8 266.706 223.312 265.767 223.312C264.999 223.312 264.103 222.587 263.079 221.136C262.482 220.453 262.183 219.045 262.183 216.912C262.183 214.949 262.396 212.816 262.823 210.512C263.25 208.208 263.634 206.331 263.975 204.88C263.122 205.904 262.354 207.013 261.671 208.208C261.074 209.317 259.794 210.981 257.831 213.2C257.49 213.541 257.106 213.712 256.679 213.712C256.082 213.712 255.783 213.371 255.783 212.688C255.783 212.176 255.954 211.749 256.295 211.408C259.367 207.483 261.927 204.155 263.975 201.424C266.108 198.608 267.431 196.603 267.943 195.408C268.626 193.616 269.522 191.312 270.631 188.496C271.826 185.68 273.148 182.693 274.599 179.536C276.05 176.293 277.543 173.179 279.079 170.192C280.615 167.12 282.108 164.475 283.559 162.256C284.839 160.293 286.332 158.331 288.039 156.368C289.746 154.32 291.666 152.656 293.799 151.376C295.932 150.011 298.236 149.328 300.711 149.328C301.65 149.328 302.674 149.456 303.783 149.712C303.868 149.712 304.082 149.797 304.423 149.968L305.703 150.352C305.874 150.437 306.002 150.48 306.087 150.48C306.172 150.48 306.258 150.523 306.343 150.608C308.732 152.059 309.927 154.064 309.927 156.624C309.927 158.672 309.244 160.976 307.879 163.536C306.684 165.925 304.722 168.699 301.991 171.856C299.346 174.928 296.274 178.085 292.775 181.328C289.362 184.485 285.82 187.557 282.151 190.544C278.567 193.445 275.282 195.92 272.295 197.968C271.442 199.589 270.674 201.467 269.991 203.6C269.308 205.733 268.754 207.867 268.327 210C270.034 207.525 271.954 205.136 274.087 202.832C276.22 200.443 278.098 198.565 279.719 197.2C282.364 194.981 284.924 193.232 287.399 191.952C289.959 190.587 292.306 189.904 294.439 189.904C295.463 189.904 296.7 190.245 298.151 190.928C299.687 191.611 301.052 192.507 302.247 193.616C303.527 194.64 304.252 195.749 304.423 196.944C304.423 197.2 304.423 197.456 304.423 197.712C304.508 197.883 304.551 198.096 304.551 198.352C304.551 200.656 303.911 203.003 302.631 205.392C301.351 207.781 299.73 210.043 297.767 212.176C295.89 214.309 293.884 216.229 291.751 217.936C289.703 219.643 287.868 221.051 286.247 222.16C283.004 224.293 279.548 226.043 275.879 227.408C272.295 228.859 268.54 229.584 264.615 229.584ZM273.703 192.848C277.628 190.288 281.554 187.259 285.479 183.76C289.404 180.261 293.031 176.592 296.359 172.752C299.772 168.912 302.503 165.328 304.551 162C305.831 159.952 306.471 157.947 306.471 155.984C306.471 155.045 306.258 154.277 305.831 153.68C305.49 152.997 304.892 152.656 304.039 152.656C303.442 152.656 302.716 152.827 301.863 153.168C301.095 153.509 300.242 154.107 299.303 154.96C295.719 157.691 292.391 161.104 289.319 165.2C286.247 169.296 283.431 173.733 280.871 178.512C278.311 183.205 275.922 187.984 273.703 192.848ZM320.018 227.92C316.178 227.92 312.85 227.024 310.034 225.232C307.218 223.44 305.81 220.709 305.81 217.04C305.81 215.077 306.407 212.688 307.602 209.872C308.455 207.909 310.034 205.648 312.338 203.088C314.642 200.528 317.33 198.053 320.402 195.664C323.474 193.189 326.589 191.184 329.746 189.648C332.903 188.027 335.762 187.216 338.322 187.216C339.261 187.216 340.114 187.344 340.882 187.6C342.333 188.112 343.314 188.923 343.826 190.032C344.423 191.141 344.722 192.293 344.722 193.488C344.722 194.597 344.551 195.664 344.21 196.688C343.869 197.712 343.442 198.608 342.93 199.376C341.394 201.68 339.175 203.728 336.274 205.52C333.458 207.312 330.557 208.72 327.57 209.744C324.669 210.768 322.279 211.365 320.402 211.536H320.146C319.037 211.536 318.482 211.195 318.482 210.512C318.482 210.085 318.823 209.872 319.506 209.872C321.554 209.701 324.114 208.763 327.186 207.056C330.343 205.264 333.117 203.429 335.506 201.552C336.53 200.699 337.725 199.504 339.09 197.968C340.541 196.432 341.266 194.939 341.266 193.488C341.266 191.952 340.541 191.184 339.09 191.184C338.322 191.184 337.511 191.355 336.658 191.696C335.89 192.037 335.25 192.293 334.738 192.464C332.263 193.659 329.533 195.536 326.546 198.096C323.559 200.571 320.829 203.387 318.354 206.544C315.965 209.616 314.301 212.731 313.362 215.888C313.106 216.571 312.935 217.253 312.85 217.936C312.765 218.533 312.722 219.131 312.722 219.728C312.722 221.776 313.362 223.227 314.642 224.08C316.007 224.933 317.629 225.36 319.506 225.36C322.322 225.36 325.223 224.763 328.21 223.568C331.197 222.288 334.098 220.667 336.914 218.704C339.73 216.741 342.29 214.651 344.594 212.432C346.983 210.128 348.989 207.909 350.61 205.776C350.866 205.435 351.165 205.264 351.506 205.264C351.847 205.179 352.061 205.221 352.146 205.392C352.487 205.477 352.658 205.733 352.658 206.16C352.658 206.501 352.573 206.843 352.402 207.184C350.013 210.512 347.111 213.755 343.698 216.912C340.37 220.069 336.658 222.715 332.562 224.848C328.551 226.896 324.37 227.92 320.018 227.92ZM393.789 245.712C390.632 245.712 387.602 244.56 384.701 242.256C381.885 240.037 379.282 237.051 376.893 233.296C374.504 229.627 372.456 225.616 370.749 221.264C369.128 216.827 367.933 212.517 367.165 208.336C364.264 212.432 361.746 216.187 359.613 219.6C357.565 223.013 356.072 224.976 355.133 225.488C354.706 225.744 353.725 226.171 352.189 226.768C350.653 227.365 349.501 227.664 348.733 227.664C348.136 227.664 347.965 227.365 348.221 226.768C348.392 226.427 348.818 225.36 349.501 223.568C350.184 221.691 350.994 219.387 351.933 216.656C352.872 213.925 353.853 211.067 354.877 208.08C355.986 205.093 357.053 202.277 358.077 199.632C357.224 200.571 356.242 201.765 355.133 203.216C354.024 204.581 352.744 206.331 351.293 208.464C351.037 208.891 350.61 209.104 350.013 209.104C349.416 209.104 349.117 208.848 349.117 208.336C349.117 207.824 349.416 207.227 350.013 206.544C351.208 205.093 352.488 203.429 353.853 201.552C355.218 199.675 356.541 197.84 357.821 196.048C359.101 194.256 360.125 192.805 360.893 191.696C359.613 191.013 358.973 190.117 358.973 189.008C358.973 188.325 359.229 187.813 359.741 187.472C360.338 187.045 360.936 187.045 361.533 187.472C361.874 187.643 362.173 187.728 362.429 187.728C363.88 183.888 365.714 179.749 367.933 175.312C370.152 170.789 372.712 166.523 375.613 162.512C378.514 158.416 381.629 155.088 384.957 152.528C388.37 149.968 391.954 148.688 395.709 148.688C396.136 148.688 396.562 148.731 396.989 148.816C397.501 148.816 397.97 148.859 398.397 148.944C398.909 149.029 399.378 149.2 399.805 149.456C400.317 149.712 400.786 149.925 401.213 150.096C403.176 151.205 404.157 152.827 404.157 154.96C404.157 156.496 403.73 158.203 402.877 160.08C402.024 161.872 400.957 163.664 399.677 165.456C398.482 167.248 397.288 168.869 396.093 170.32C394.898 171.771 393.96 172.88 393.277 173.648C389.096 177.915 384.573 181.797 379.709 185.296C374.93 188.795 370.749 191.269 367.165 192.72C365.8 195.621 364.52 198.608 363.325 201.68C362.13 204.667 361.106 207.44 360.253 210C359.485 212.475 358.888 214.395 358.461 215.76C359.912 213.968 361.277 212.176 362.557 210.384C363.922 208.507 365.288 206.672 366.653 204.88C366.653 204.539 366.61 204.197 366.525 203.856C366.525 203.515 366.525 203.173 366.525 202.832C366.525 202.32 366.525 201.851 366.525 201.424C366.61 200.912 366.696 200.443 366.781 200.016C366.866 199.504 367.08 198.992 367.421 198.48C367.762 197.968 368.104 197.712 368.445 197.712C368.957 197.712 369.256 198.224 369.341 199.248C369.426 199.504 369.512 199.803 369.597 200.144C369.682 200.485 369.768 200.827 369.853 201.168C370.962 199.888 372.328 198.309 373.949 196.432C375.656 194.555 377.405 192.763 379.197 191.056C380.989 189.349 382.61 188.155 384.061 187.472C385.256 186.875 386.45 186.576 387.645 186.576C388.84 186.576 389.821 186.875 390.589 187.472C391.357 187.984 391.741 188.624 391.741 189.392C391.741 190.587 390.845 191.611 389.053 192.464C387.688 193.061 385.853 193.915 383.549 195.024C381.33 196.133 379.026 197.456 376.637 198.992C374.248 200.528 372.2 202.192 370.493 203.984C371.773 208.507 373.01 212.389 374.205 215.632C375.485 218.875 376.978 221.989 378.685 224.976C380.477 227.877 382.824 231.163 385.725 234.832C387.688 237.051 389.693 238.843 391.741 240.208C393.789 241.573 395.624 242.256 397.245 242.256C398.696 242.256 399.677 241.915 400.189 241.232C400.786 240.635 401.085 239.867 401.085 238.928C401.085 237.819 400.786 236.581 400.189 235.216C399.677 233.936 399.122 232.869 398.525 232.016C398.098 231.504 397.885 231.035 397.885 230.608C397.885 230.352 398.056 230.224 398.397 230.224C399.165 230.224 399.976 230.565 400.829 231.248C401.256 231.76 401.81 232.741 402.493 234.192C403.261 235.728 403.645 237.051 403.645 238.16C403.645 239.867 403.048 241.275 401.853 242.384C400.658 243.579 399.293 244.432 397.757 244.944C396.221 245.456 394.898 245.712 393.789 245.712ZM368.701 188.368C372.37 186.747 376.082 184.528 379.837 181.712C383.592 178.896 387.09 175.568 390.333 171.728C390.76 171.216 391.485 170.277 392.509 168.912C393.533 167.461 394.642 165.84 395.837 164.048C397.117 162.256 398.184 160.464 399.037 158.672C399.89 156.88 400.317 155.387 400.317 154.192C400.317 153.339 400.061 152.741 399.549 152.4C399.293 152.144 398.909 152.016 398.397 152.016C397.032 152.016 395.453 152.741 393.661 154.192C387.944 158.629 383.165 163.621 379.325 169.168C375.57 174.629 372.029 181.029 368.701 188.368ZM160.802 350.352C154.828 350.352 150.135 349.328 146.722 347.28C143.308 345.317 141.602 342.501 141.602 338.832C141.602 335.077 142.711 331.621 144.93 328.464C147.148 325.221 150.007 322.448 153.506 320.144C157.09 317.755 160.802 315.92 164.642 314.64C168.567 313.275 172.194 312.592 175.522 312.592C177.228 312.592 178.082 312.848 178.082 313.36C178.082 314.128 177.186 314.512 175.394 314.512C172.236 314.512 168.78 315.28 165.026 316.816C161.356 318.352 158.071 320.485 155.17 323.216C152.866 325.264 151.116 327.355 149.922 329.488C148.812 331.536 148.258 333.456 148.258 335.248C148.258 337.893 149.495 340.112 151.97 341.904C154.444 343.611 158.156 344.464 163.106 344.464C166.007 344.464 168.951 344.251 171.938 343.824C174.924 343.312 177.612 342.757 180.002 342.16C182.476 341.563 184.354 341.093 185.634 340.752C188.791 339.728 191.948 338.491 195.106 337.04C198.348 335.589 201.25 333.968 203.81 332.176C206.37 330.299 208.247 328.421 209.442 326.544C210.124 325.52 210.594 324.539 210.85 323.6C211.191 322.661 211.362 321.765 211.362 320.912C211.362 318.523 210.295 316.517 208.162 314.896C206.028 313.189 203.298 311.653 199.97 310.288C196.642 308.923 193.1 307.643 189.346 306.448C185.591 305.168 182.05 303.845 178.722 302.48C175.394 301.115 172.663 299.579 170.53 297.872C168.396 296.08 167.33 293.947 167.33 291.472C167.33 288.656 168.354 286.139 170.402 283.92C172.535 281.616 175.223 279.611 178.466 277.904C181.794 276.112 185.335 274.661 189.09 273.552C192.844 272.357 196.428 271.461 199.842 270.864C203.255 270.267 206.071 269.968 208.29 269.968C217.676 269.968 222.37 272.315 222.37 277.008C222.37 278.885 221.602 281.061 220.066 283.536C219.383 284.816 218.402 286.053 217.122 287.248C215.842 288.357 214.86 288.912 214.178 288.912C213.666 288.912 213.41 288.613 213.41 288.016C213.41 287.76 213.879 287.248 214.818 286.48C215.756 285.627 216.695 284.603 217.634 283.408C218.572 282.213 219.042 281.019 219.042 279.824C219.042 278.032 218.018 276.667 215.97 275.728C214.007 274.789 211.404 274.32 208.162 274.32C206.626 274.32 204.407 274.576 201.506 275.088C198.604 275.515 195.447 276.24 192.034 277.264C188.62 278.288 185.335 279.653 182.178 281.36C176.29 284.603 173.346 287.376 173.346 289.68C173.346 291.387 175.01 293.008 178.338 294.544C180.812 295.653 183.671 296.805 186.914 298C190.156 299.195 193.442 300.475 196.77 301.84C200.098 303.205 203.17 304.741 205.986 306.448C208.887 308.155 211.191 310.075 212.898 312.208C214.69 314.256 215.586 316.603 215.586 319.248C215.586 322.832 213.623 326.501 209.698 330.256C206.626 333.157 203.042 335.845 198.946 338.32C194.935 340.795 190.668 342.928 186.146 344.72C181.708 346.512 177.314 347.877 172.962 348.816C168.61 349.84 164.556 350.352 160.802 350.352ZM221.707 347.664C221.024 347.664 220.853 347.365 221.195 346.768C221.365 346.256 221.792 344.976 222.475 342.928C223.243 340.88 224.139 338.405 225.163 335.504C226.187 332.603 227.253 329.659 228.363 326.672C229.472 323.6 230.496 320.869 231.435 318.48C230.837 319.248 229.899 320.357 228.619 321.808C227.424 323.259 226.144 324.795 224.779 326.416C223.413 328.037 222.133 329.445 220.939 330.64C220.683 330.896 220.512 331.024 220.427 331.024C220.171 331.024 220.043 330.768 220.043 330.256C220.043 329.232 220.299 328.293 220.811 327.44C222.688 325.051 224.48 322.832 226.187 320.784C227.979 318.651 229.6 316.645 231.051 314.768C230.197 314.256 229.771 313.616 229.771 312.848C229.771 311.653 230.368 311.056 231.562 311.056C232.075 311.056 232.459 311.141 232.715 311.312C232.8 311.397 232.885 311.44 232.971 311.44C233.056 311.44 233.141 311.525 233.227 311.696C233.653 311.099 233.995 310.544 234.251 310.032C234.592 309.52 234.891 308.965 235.147 308.368C235.488 307.6 236.171 306.149 237.195 304.016C238.304 301.797 239.669 299.195 241.291 296.208C242.912 293.221 244.747 290.149 246.795 286.992C248.928 283.749 251.189 280.763 253.579 278.032C256.053 275.216 258.571 272.955 261.131 271.248C263.776 269.541 266.464 268.688 269.195 268.688C269.536 268.688 269.877 268.731 270.219 268.816C270.56 268.816 270.901 268.859 271.243 268.944C273.376 269.371 274.869 270.139 275.723 271.248C276.576 272.272 277.003 273.509 277.003 274.96C277.003 275.984 276.789 277.093 276.363 278.288C276.021 279.397 275.509 280.507 274.827 281.616C273.12 284.603 270.859 287.632 268.043 290.704C265.227 293.691 262.069 296.677 258.571 299.664C255.157 302.565 251.701 305.424 248.203 308.24C244.789 310.971 241.589 313.573 238.603 316.048C236.555 320.4 234.976 324.283 233.867 327.696C232.757 331.024 231.904 333.712 231.307 335.76C232.245 334.565 233.653 332.859 235.531 330.64C237.408 328.421 239.541 326.032 241.931 323.472C244.32 320.912 246.795 318.48 249.354 316.176C251.914 313.787 254.347 311.867 256.651 310.416C258.955 308.88 260.917 308.112 262.539 308.112C264.587 308.112 265.611 309.179 265.611 311.312C265.611 313.36 264.885 315.621 263.435 318.096C261.984 320.571 260.789 322.661 259.851 324.368C258.656 326.843 257.675 329.232 256.907 331.536C256.224 333.755 255.797 335.589 255.627 337.04C255.541 337.381 255.499 337.723 255.499 338.064C255.499 338.32 255.499 338.619 255.499 338.96C255.499 342.373 256.693 344.08 259.083 344.08C260.363 344.08 262.069 343.312 264.203 341.776C266.336 340.24 268.512 338.405 270.731 336.272C272.949 334.139 274.955 332.091 276.747 330.128C278.624 328.08 279.904 326.544 280.587 325.52C280.843 325.264 281.141 325.136 281.483 325.136C281.824 325.136 282.08 325.264 282.251 325.52C282.421 325.776 282.421 326.117 282.251 326.544C281.397 327.995 280.075 329.829 278.283 332.048C276.491 334.181 274.485 336.357 272.267 338.576C270.048 340.709 267.872 342.544 265.739 344.08C264.629 344.933 263.179 345.659 261.387 346.256C259.68 346.939 257.973 347.28 256.267 347.28C254.901 347.28 253.579 346.939 252.299 346.256C251.019 345.573 250.08 344.293 249.483 342.416C249.227 341.648 249.099 340.581 249.099 339.216C249.099 338.789 249.099 338.363 249.099 337.936C249.099 337.424 249.141 336.912 249.227 336.4C249.568 333.669 250.464 330.811 251.915 327.824C253.451 324.752 254.859 322.021 256.139 319.632C256.48 318.949 256.736 318.352 256.907 317.84C257.163 317.328 257.291 316.901 257.291 316.56C257.291 315.877 256.992 315.536 256.395 315.536C255.797 315.536 254.859 315.92 253.579 316.688C252.299 317.456 250.592 318.779 248.458 320.656C246.581 322.277 244.576 324.411 242.443 327.056C240.395 329.616 238.347 332.261 236.299 334.992C234.336 337.723 232.587 340.069 231.051 342.032C229.6 343.995 228.576 345.147 227.979 345.488C227.552 345.744 226.571 346.171 225.035 346.768C223.499 347.365 222.389 347.664 221.707 347.664ZM241.035 310.288C244.448 307.984 248.16 305.125 252.171 301.712C256.181 298.213 259.936 294.501 263.435 290.576C267.019 286.565 269.749 282.768 271.627 279.184C272.651 277.221 273.163 275.6 273.163 274.32C273.163 272.869 272.523 272.144 271.243 272.144C270.645 272.144 269.963 272.315 269.195 272.656C268.427 272.912 267.531 273.424 266.507 274.192C260.789 278.629 255.968 283.92 252.043 290.064C248.117 296.123 244.448 302.864 241.035 310.288ZM314.645 347.28C313.194 347.28 311.829 346.939 310.549 346.256C309.354 345.573 308.458 344.293 307.861 342.416C307.605 341.648 307.477 340.581 307.477 339.216C307.477 337.339 307.733 335.248 308.245 332.944C308.757 330.64 309.311 328.677 309.909 327.056C309.482 327.227 308.671 327.995 307.477 329.36C306.367 330.64 304.959 332.219 303.253 334.096C301.631 335.888 299.797 337.723 297.749 339.6C295.786 341.392 293.738 342.885 291.605 344.08C289.471 345.275 287.381 345.872 285.333 345.872C283.967 345.872 282.517 345.488 280.981 344.72C279.445 343.867 278.207 342.8 277.269 341.52C275.989 339.813 275.349 338.064 275.349 336.272C275.349 333.968 276.117 331.579 277.653 329.104C279.274 326.629 281.322 324.24 283.797 321.936C286.357 319.547 289.045 317.413 291.861 315.536C294.762 313.573 297.493 311.952 300.053 310.672C302.698 309.307 304.831 308.411 306.453 307.984C308.159 307.472 310.079 307.216 312.213 307.216C313.407 307.216 314.645 307.387 315.925 307.728C317.205 307.984 318.271 308.453 319.125 309.136C319.807 309.477 320.362 309.947 320.789 310.544C321.215 311.141 321.429 311.781 321.429 312.464C321.429 313.147 321.13 313.36 320.533 313.104C319.85 312.08 318.911 311.44 317.717 311.184C316.607 310.843 315.455 310.672 314.261 310.672C310.847 310.672 307.093 311.781 302.997 314C298.901 316.219 295.231 318.821 291.989 321.808C290.965 322.661 289.557 324.155 287.765 326.288C286.058 328.336 284.479 330.597 283.029 333.072C281.578 335.547 280.853 337.808 280.853 339.856C280.853 340.965 281.151 341.947 281.749 342.8C282.09 343.397 282.645 343.696 283.413 343.696C284.607 343.696 286.186 343.056 288.149 341.776C290.197 340.496 292.287 338.96 294.421 337.168C296.554 335.291 298.474 333.499 300.181 331.792C301.973 330.085 303.253 328.848 304.021 328.08C304.447 327.653 305.258 326.8 306.453 325.52C307.733 324.155 309.098 322.704 310.549 321.168C311.999 319.632 313.279 318.309 314.389 317.2C315.583 316.091 316.351 315.536 316.693 315.536C317.119 315.536 317.802 315.664 318.741 315.92C319.765 316.091 320.618 316.389 321.301 316.816C321.983 317.243 322.111 317.797 321.685 318.48C319.466 321.723 317.674 325.136 316.309 328.72C315.029 332.219 314.261 334.992 314.005 337.04C313.919 337.381 313.877 337.723 313.877 338.064C313.877 338.32 313.877 338.619 313.877 338.96C313.877 342.373 315.071 344.08 317.461 344.08C318.741 344.08 320.447 343.312 322.581 341.776C324.714 340.24 326.89 338.405 329.109 336.272C331.327 334.139 333.333 332.091 335.125 330.128C337.002 328.08 338.282 326.544 338.965 325.52C339.221 325.264 339.477 325.136 339.733 325.136C340.074 325.136 340.373 325.307 340.629 325.648C340.885 325.904 340.885 326.245 340.629 326.672C339.69 328.208 338.325 330.043 336.533 332.176C334.741 334.309 332.735 336.443 330.517 338.576C328.298 340.709 326.122 342.544 323.989 344.08C322.879 344.933 321.471 345.659 319.765 346.256C318.058 346.939 316.351 347.28 314.645 347.28ZM337.957 347.664C337.274 347.664 337.103 347.365 337.445 346.768C337.615 346.256 338.042 344.976 338.725 342.928C339.493 340.88 340.389 338.405 341.413 335.504C342.437 332.603 343.503 329.659 344.613 326.672C345.722 323.6 346.746 320.869 347.685 318.48C347.087 319.248 346.149 320.357 344.869 321.808C343.674 323.259 342.394 324.795 341.029 326.416C339.663 328.037 338.383 329.445 337.189 330.64C336.933 330.896 336.762 331.024 336.677 331.024C336.421 331.024 336.293 330.768 336.293 330.256C336.293 329.232 336.549 328.293 337.061 327.44C338.938 325.051 340.73 322.832 342.437 320.784C344.229 318.651 345.85 316.645 347.301 314.768C346.447 314.256 346.021 313.616 346.021 312.848C346.021 311.653 346.618 311.056 347.812 311.056C348.325 311.056 348.709 311.141 348.965 311.312C349.05 311.397 349.135 311.44 349.221 311.44C349.306 311.44 349.391 311.525 349.477 311.696C349.903 311.099 350.245 310.544 350.501 310.032C350.842 309.52 351.141 308.965 351.397 308.368C351.738 307.6 352.421 306.149 353.445 304.016C354.554 301.797 355.919 299.195 357.541 296.208C359.162 293.221 360.997 290.149 363.045 286.992C365.178 283.749 367.439 280.763 369.829 278.032C372.303 275.216 374.821 272.955 377.381 271.248C380.026 269.541 382.714 268.688 385.445 268.688C385.786 268.688 386.127 268.731 386.469 268.816C386.81 268.816 387.151 268.859 387.493 268.944C389.626 269.371 391.119 270.139 391.973 271.248C392.826 272.272 393.253 273.509 393.253 274.96C393.253 275.984 393.039 277.093 392.613 278.288C392.271 279.397 391.759 280.507 391.077 281.616C389.37 284.603 387.109 287.632 384.293 290.704C381.477 293.691 378.319 296.677 374.821 299.664C371.407 302.565 367.951 305.424 364.453 308.24C361.039 310.971 357.839 313.573 354.853 316.048C352.805 320.4 351.226 324.283 350.117 327.696C349.007 331.024 348.154 333.712 347.557 335.76C348.495 334.565 349.903 332.859 351.781 330.64C353.658 328.421 355.791 326.032 358.181 323.472C360.57 320.912 363.045 318.48 365.604 316.176C368.164 313.787 370.597 311.867 372.901 310.416C375.205 308.88 377.167 308.112 378.789 308.112C380.837 308.112 381.861 309.179 381.861 311.312C381.861 313.36 381.135 315.621 379.685 318.096C378.234 320.571 377.039 322.661 376.101 324.368C374.906 326.843 373.925 329.232 373.157 331.536C372.474 333.755 372.047 335.589 371.877 337.04C371.791 337.381 371.749 337.723 371.749 338.064C371.749 338.32 371.749 338.619 371.749 338.96C371.749 342.373 372.943 344.08 375.333 344.08C376.613 344.08 378.319 343.312 380.453 341.776C382.586 340.24 384.762 338.405 386.981 336.272C389.199 334.139 391.205 332.091 392.997 330.128C394.874 328.08 396.154 326.544 396.837 325.52C397.093 325.264 397.391 325.136 397.733 325.136C398.074 325.136 398.33 325.264 398.501 325.52C398.671 325.776 398.671 326.117 398.501 326.544C397.647 327.995 396.325 329.829 394.533 332.048C392.741 334.181 390.735 336.357 388.517 338.576C386.298 340.709 384.122 342.544 381.989 344.08C380.879 344.933 379.429 345.659 377.637 346.256C375.93 346.939 374.223 347.28 372.517 347.28C371.151 347.28 369.829 346.939 368.549 346.256C367.269 345.573 366.33 344.293 365.733 342.416C365.477 341.648 365.349 340.581 365.349 339.216C365.349 338.789 365.349 338.363 365.349 337.936C365.349 337.424 365.391 336.912 365.477 336.4C365.818 333.669 366.714 330.811 368.165 327.824C369.701 324.752 371.109 322.021 372.389 319.632C372.73 318.949 372.986 318.352 373.157 317.84C373.413 317.328 373.541 316.901 373.541 316.56C373.541 315.877 373.242 315.536 372.645 315.536C372.047 315.536 371.109 315.92 369.829 316.688C368.549 317.456 366.842 318.779 364.708 320.656C362.831 322.277 360.826 324.411 358.693 327.056C356.645 329.616 354.597 332.261 352.549 334.992C350.586 337.723 348.837 340.069 347.301 342.032C345.85 343.995 344.826 345.147 344.229 345.488C343.802 345.744 342.821 346.171 341.285 346.768C339.749 347.365 338.639 347.664 337.957 347.664ZM357.285 310.288C360.698 307.984 364.41 305.125 368.421 301.712C372.431 298.213 376.186 294.501 379.685 290.576C383.269 286.565 385.999 282.768 387.877 279.184C388.901 277.221 389.413 275.6 389.413 274.32C389.413 272.869 388.773 272.144 387.493 272.144C386.895 272.144 386.213 272.315 385.445 272.656C384.677 272.912 383.781 273.424 382.757 274.192C377.039 278.629 372.218 283.92 368.293 290.064C364.367 296.123 360.698 302.864 357.285 310.288Z" fill="black"/>
</svg>
