<svg width="600" height="400" xmlns="http://www.w3.org/2000/svg">
  <rect width="600" height="400" fill="#292929"/>
  <rect x="50" y="50" width="500" height="300" rx="10" fill="#1f1f1f"/>
  
  <!-- Map/Location Icon -->
  <circle cx="200" cy="150" r="45" fill="#4D4D4D"/>
  <path d="M200 125 C200 125, 185 155, 200 170 C215 155, 200 125, 200 125 Z" fill="#ffffff"/>
  <circle cx="200" cy="140" r="8" fill="#292929"/>
  
  <!-- Calendar/Booking Cards -->
  <rect x="270" y="100" width="70" height="90" rx="5" fill="#4D4D4D"/>
  <rect x="270" y="100" width="70" height="20" rx="5" fill="#ffffff"/>
  <circle cx="290" cy="140" r="3" fill="#ffffff"/>
  <circle cx="310" cy="140" r="3" fill="#ffffff"/>
  <circle cx="330" cy="140" r="3" fill="#ffffff"/>
  
  <rect x="360" y="100" width="70" height="90" rx="5" fill="#4D4D4D"/>
  <rect x="360" y="100" width="70" height="20" rx="5" fill="#ffffff"/>
  <circle cx="380" cy="140" r="3" fill="#ffffff"/>
  <circle cx="400" cy="140" r="3" fill="#ffffff"/>
  <circle cx="420" cy="140" r="3" fill="#ffffff"/>
  
  <rect x="450" y="100" width="70" height="90" rx="5" fill="#4D4D4D"/>
  <rect x="450" y="100" width="70" height="20" rx="5" fill="#ffffff"/>
  <circle cx="470" cy="140" r="3" fill="#ffffff"/>
  <circle cx="490" cy="140" r="3" fill="#ffffff"/>
  <circle cx="510" cy="140" r="3" fill="#ffffff"/>
  
  <!-- Title -->
  <text x="300" y="250" font-family="Arial, sans-serif" font-size="28" font-weight="bold" fill="#ffffff" text-anchor="middle">Tour Management</text>
  <text x="300" y="280" font-family="Arial, sans-serif" font-size="16" fill="#CCCCCC" text-anchor="middle">Booking & Tracking System</text>
  
  <!-- Decorative dots -->
  <circle cx="80" cy="320" r="4" fill="#ffffff" opacity="0.3"/>
  <circle cx="520" cy="80" r="4" fill="#ffffff" opacity="0.3"/>
</svg>

